<svg x="0" y="0" width="61" height="61" viewBox="0 0 350 350" xmlns="http://www.w3.org/2000/svg" xmlns:xlink="http://www.w3.org/1999/xlink" xmlns:fi="http://pattern.flaticon.com/"><rect x="0px" y="0px" width="100%" height="100%" opacity="0" fill="#ffffff"/><defs><g transform="matrix(0.6956654787063599 0 0 0.6956654787063599 21.98175811767578 3.0837934017181396)" id="L1_1"><path d="M309.125,441.463 151.34,441.463 171.063,352.014 289.402,352.014z" fill="#d8d9dd"/><rect x="131px" y="431px" width="197px" height="18px" fill="#d8d9dd"/><path d="M439.677,75.537c0.012,0,0.226,0.139,0.226,0.151v255.997H20.562V75.688  c0-0.012,0.149-0.151,0.161-0.151H439.677L439.677,75.537z M460.233,203.61V75.652c0-10.847-9.672-20.444-20.52-20.444l0,0H20.687  c-10.847,0-20.454,9.597-20.454,20.444V203.61v0.003v127.959c0,10.848,9.607,20.444,20.454,20.444h419.026l0,0  c10.848,0,20.52-9.597,20.52-20.444V203.613V203.61z" fill="#59595a"/><path d="M439.677,75.537c0.012,0,0.226,0.139,0.226,0.151v255.997H20.562V75.688  c0-0.012,0.149-0.151,0.161-0.151H439.677L439.677,75.537z" fill="#90c5ff"/><rect x="131px" y="431px" width="197px" height="18px" opacity="0.4" fill="#5b5b5f"/><g><path d="M180.309,362.12 152.963,374.159 0,27.043     27.335,14.99z" opacity="0.2" fill="#ffffff"/><path d="M232.33,357.771 204.974,369.809 52.01,22.692     79.325,10.639z" opacity="0.2" fill="#ffffff"/></g></g></defs><g fi:class="KUsePattern"><pattern id="pattern_L1_1" width="350" height="350" patternUnits="userSpaceOnUse"><use xlink:href="#L1_1" x="-350" y="-350"/><use xlink:href="#L1_1" x="0" y="-350"/><use xlink:href="#L1_1" x="350" y="-350"/><use xlink:href="#L1_1" x="-350" y="0"/><use xlink:href="#L1_1" x="0" y="0"/><use xlink:href="#L1_1" x="350" y="0"/><use xlink:href="#L1_1" x="-350" y="350"/><use xlink:href="#L1_1" x="0" y="350"/><use xlink:href="#L1_1" x="350" y="350"/></pattern><rect x="0" y="0" width="100%" height="100%" fill="url(#pattern_L1_1)"/></g></svg>