<svg x="0" y="0" width="61" height="61" viewBox="0 0 350 350" xmlns="http://www.w3.org/2000/svg" xmlns:xlink="http://www.w3.org/1999/xlink" xmlns:fi="http://pattern.flaticon.com/"><rect x="0px" y="0px" width="100%" height="100%" opacity="0" fill="#ffffff"/><defs><g transform="matrix(0.6887074112892151 0 0 0.6887074112892151 27.507450103759766 12.597295761108398)" id="L1_0"><rect x="10px" y="0px" width="346px" height="460px" fill="#edeef0"/><rect x="55px" y="40px" width="138px" height="10px" opacity="0.4" fill="#5b5b5f"/><rect x="55px" y="86px" width="255px" height="10px" opacity="0.4" fill="#5b5b5f"/><rect x="55px" y="132px" width="255px" height="10px" opacity="0.4" fill="#5b5b5f"/><rect x="55px" y="178px" width="255px" height="10px" opacity="0.4" fill="#5b5b5f"/><rect x="55px" y="225px" width="255px" height="10px" opacity="0.4" fill="#5b5b5f"/><rect x="55px" y="271px" width="255px" height="10px" opacity="0.4" fill="#5b5b5f"/><rect x="55px" y="317px" width="255px" height="10px" opacity="0.4" fill="#5b5b5f"/><rect x="55px" y="363px" width="255px" height="10px" opacity="0.4" fill="#5b5b5f"/><rect x="55px" y="409px" width="255px" height="10px" opacity="0.4" fill="#5b5b5f"/><circle cx="284" cy="279" r="75" fill="#90c5ff"/><rect x="380px" y="344px" width="33px" height="96px" transform="matrix(-0.707099974155426 0.707099974155426 -0.707099974155426 -0.707099974155426 956.07373046875 389.4254150390625)" fill="#59595a"/><rect x="343px" y="350px" width="33px" height="9px" transform="matrix(-0.707099974155426 0.707099974155426 -0.707099974155426 -0.707099974155426 865.7410278320312 352.0067138671875)" fill="#abcb57"/><rect x="418px" y="425px" width="33px" height="9px" transform="matrix(-0.707099974155426 0.707099974155426 -0.707099974155426 -0.707099974155426 1046.4071044921875 426.8424072265625)" fill="#abcb57"/><g><path d="M413.608,308.509 407.167,325.08 196.752,243.388     203.182,226.815z" opacity="0.2" fill="#ffffff"/><path d="M433.666,284.79 427.221,301.366 216.805,219.674     223.227,203.109z" opacity="0.2" fill="#ffffff"/></g><path d="M367.923,279.381c0-22.403-8.724-43.466-24.566-59.308c-15.842-15.841-36.904-24.566-59.307-24.565  c-22.403,0-43.466,8.724-59.307,24.565c-15.842,15.842-24.566,36.904-24.566,59.308c0,22.403,8.724,43.466,24.566,59.307  c15.842,15.842,36.904,24.566,59.307,24.566c19.462,0,37.907-6.591,52.801-18.705l13.713,13.713l12.367-12.367l-13.713-13.713  C361.332,317.288,367.923,298.843,367.923,279.381z M284.05,345.932c-17.776,0-34.489-6.922-47.058-19.492  c-12.57-12.569-19.492-29.282-19.492-47.058c0-17.776,6.923-34.489,19.492-47.058c12.57-12.57,29.282-19.492,47.058-19.493  c17.776,0,34.489,6.923,47.058,19.493c12.57,12.569,19.492,29.282,19.492,47.058s-6.923,34.489-19.492,47.058  C318.538,339.009,301.826,345.932,284.05,345.932z" fill="#59595a"/><path d="M367.923,279.381c0-22.403-8.724-43.466-24.566-59.307  c-15.842-15.842-36.904-24.566-59.307-24.566s-43.466,8.724-59.307,24.566l12.249,12.249c12.57-12.57,29.282-19.492,47.058-19.492  c17.777,0,34.489,6.923,47.058,19.492c12.57,12.57,19.492,29.282,19.492,47.058c0,17.777-6.923,34.489-19.492,47.058l11.356,11.356  l0.893,0.893l13.391,13.391l3.225,3.225l78.06,78.06l11.818-11.818l-6.45-6.45l-68.385-68.385l-6.45-6.45l-5.635,5.635l-13.71-13.71  C361.335,317.291,367.923,298.843,367.923,279.381z" opacity="0.4" fill="#5b5b5f"/></g></defs><g fi:class="KUsePattern"><pattern id="pattern_L1_0" width="350" height="350" patternUnits="userSpaceOnUse"><use xlink:href="#L1_0" x="-350" y="-350"/><use xlink:href="#L1_0" x="0" y="-350"/><use xlink:href="#L1_0" x="350" y="-350"/><use xlink:href="#L1_0" x="-350" y="0"/><use xlink:href="#L1_0" x="0" y="0"/><use xlink:href="#L1_0" x="350" y="0"/><use xlink:href="#L1_0" x="-350" y="350"/><use xlink:href="#L1_0" x="0" y="350"/><use xlink:href="#L1_0" x="350" y="350"/></pattern><rect x="0" y="0" width="100%" height="100%" fill="url(#pattern_L1_0)"/></g></svg>