<svg x="0" y="0" width="61" height="61" viewBox="0 0 350 350" xmlns="http://www.w3.org/2000/svg" xmlns:xlink="http://www.w3.org/1999/xlink" xmlns:fi="http://pattern.flaticon.com/"><rect x="0px" y="0px" width="100%" height="100%" opacity="0" fill="#ffffff"/><defs><g transform="matrix(0.705594539642334 0 0 0.705594539642334 6.713255882263184 -11.236127853393555)" id="L1_2"><rect x="0px" y="50px" width="460px" height="339px" fill="#d8d9dd"/><path d="M419.718,314.547v-189.39c-19.164,0-34.699-15.535-34.699-34.699H74.981  c0,19.164-15.535,34.699-34.699,34.699v189.39c19.164,0,34.699,15.535,34.699,34.699h310.038  C385.019,330.083,400.554,314.547,419.718,314.547z" fill="#edeef0"/><path d="M341.727,409.824 311.228,386.587 279.277,409.824 279.277,328.495 341.727,328.495z" fill="#c8523b"/><path d="M353.873,313.756c0,24.224-19.64,43.87-43.873,43.87s-43.873-19.646-43.873-43.87  c0-24.23,19.64-43.876,43.873-43.876S353.873,289.526,353.873,313.756z" fill="#e5c400"/><path d="M353.873,313.756c0-24.23-19.64-43.876-43.873-43.876v58.614  v29.131v29.489l0.726-0.528l30.498,23.237v-65.26C349.043,336.642,353.873,325.763,353.873,313.756z" opacity="0.3" fill="#5b5b5f"/><rect x="170px" y="151px" width="120px" height="10px" opacity="0.4" fill="#5b5b5f"/><rect x="117px" y="194px" width="225px" height="10px" opacity="0.4" fill="#5b5b5f"/><rect x="117px" y="238px" width="225px" height="10px" opacity="0.4" fill="#5b5b5f"/></g><g transform="matrix(0.3144257366657257 0 0 0.3144257366657257 169.6820831298828 171.6820831298828)" id="L1_3"><ellipse cx="230px" cy="230px" rx="209px" ry="209px" fill="#edeef0"/><path d="M323.99,157.37l-13.518-14.74l-72.13,66.147c-2.586-1.018-5.4-1.584-8.347-1.584  c-2.43,0-4.77,0.384-6.966,1.088l-100.831-105.2L107.76,116.92l100.828,105.197c-0.905,2.456-1.4,5.11-1.4,7.88  c0,12.591,10.212,22.81,22.807,22.81s22.807-10.22,22.807-22.81c0-2.252-0.332-4.426-0.94-6.481L323.99,157.37z" fill="#59595a"/><path d="M392.627,67.666C349.187,24.312,291.432,0.435,230,0.435S110.813,24.312,67.373,67.666  C23.927,111.026,0,168.677,0,230s23.927,118.974,67.373,162.334c43.44,43.354,101.196,67.231,162.627,67.231  s119.187-23.876,162.627-67.231C436.073,348.974,460,291.323,460,230S436.073,111.026,392.627,67.666z M239.995,439.322v-61.656h-20  v61.655C112.15,434.248,25.336,347.619,20.244,240h62.084v-20H20.244c5.092-107.619,91.906-194.248,199.75-199.322v61.655h20V20.678  C347.844,25.747,434.663,112.377,439.756,220h-62.094v20h62.094C434.663,347.623,347.844,434.253,239.995,439.322z" fill="#59595a"/><path d="M317.412,311.773l-72.763-80.475c0.038-0.43,0.066-0.863,0.066-1.303  c0-8.133-6.583-14.716-14.72-14.716c-8.138,0-14.721,6.583-14.721,14.716c0,8.081,6.487,14.618,14.54,14.716l72.762,80.475  L317.412,311.773z" fill="#c8523b"/></g></defs><g fi:class="KUsePattern"><pattern id="pattern_L1_2" width="350" height="350" patternUnits="userSpaceOnUse"><use xlink:href="#L1_2" x="-350" y="-350"/><use xlink:href="#L1_2" x="0" y="-350"/><use xlink:href="#L1_2" x="350" y="-350"/><use xlink:href="#L1_2" x="-350" y="0"/><use xlink:href="#L1_2" x="0" y="0"/><use xlink:href="#L1_2" x="350" y="0"/><use xlink:href="#L1_2" x="-350" y="350"/><use xlink:href="#L1_2" x="0" y="350"/><use xlink:href="#L1_2" x="350" y="350"/></pattern><rect x="0" y="0" width="100%" height="100%" fill="url(#pattern_L1_2)"/></g><g fi:class="KUsePattern"><pattern id="pattern_L1_3" width="350" height="350" patternUnits="userSpaceOnUse"><use xlink:href="#L1_3" x="-350" y="-350"/><use xlink:href="#L1_3" x="0" y="-350"/><use xlink:href="#L1_3" x="350" y="-350"/><use xlink:href="#L1_3" x="-350" y="0"/><use xlink:href="#L1_3" x="0" y="0"/><use xlink:href="#L1_3" x="350" y="0"/><use xlink:href="#L1_3" x="-350" y="350"/><use xlink:href="#L1_3" x="0" y="350"/><use xlink:href="#L1_3" x="350" y="350"/></pattern><rect x="0" y="0" width="100%" height="100%" fill="url(#pattern_L1_3)"/></g></svg>