<?xml version="1.0" encoding="UTF-8"?>
<!DOCTYPE svg PUBLIC "-//W3C//DTD SVG 1.1//EN" "http://www.w3.org/Graphics/SVG/1.1/DTD/svg11.dtd">
<svg version="1.1" id="Layer_1" xmlns="http://www.w3.org/2000/svg" xmlns:xlink="http://www.w3.org/1999/xlink" x="0px" y="0px" width="160px" height="70px" viewBox="0 0 160 110" enable-background="new 0 0 160 110" xml:space="preserve">
<g>
	<g>
		<g>
			<polygon opacity="0.15" fill="#FFFFFF" points="4.589,20.815 4.589,49.84 29.727,35.331    "/>
			<polygon opacity="0.3" fill="#FFFFFF" points="4.59,49.84 29.727,64.352 29.727,35.327    "/>
			<polygon opacity="0.4" fill="#FFFFFF" points="29.727,35.327 29.727,64.352 54.867,49.84    "/>
			<polygon opacity="0.6" fill="#FFFFFF" points="29.727,35.327 54.865,49.84 54.865,20.815    "/>
			<polygon opacity="0.4" fill="#FFFFFF" points="54.865,20.815 54.865,49.84 79.999,35.327    "/>
			<polygon opacity="0.7" fill="#FFFFFF" points="54.865,20.815 79.999,35.327 79.999,6.303    "/>
			<polygon opacity="0.3" fill="#FFFFFF" points="79.999,6.303 79.999,35.327 105.133,20.815    "/>
			<polygon opacity="0.15" fill="#FFFFFF" points="105.133,20.815 79.999,35.327 105.133,49.84    "/>
			<polygon opacity="0.3" fill="#FFFFFF" points="105.133,20.815 130.27,35.327 105.133,49.84    "/>
			<polygon opacity="0.7" fill="#FFFFFF" points="130.27,35.327 130.27,64.352 105.133,49.84    "/>
			<polygon opacity="0.4" fill="#FFFFFF" points="130.27,35.327 130.27,64.352 155.407,49.84    "/>
			<polygon opacity="0.6" fill="#FFFFFF" points="155.407,20.815 130.27,35.327 155.407,49.84    "/>
		</g>
		<g>
			<polygon opacity="0.8" fill="none" stroke="#FFFFFF" stroke-width="1.8048" stroke-miterlimit="10" points="54.865,49.84      29.727,64.352 4.589,49.84 4.589,20.815 29.727,6.303 54.865,20.815    "/>
			<polygon opacity="0.8" fill="none" stroke="#FFFFFF" stroke-width="1.8048" stroke-miterlimit="10" points="105.133,49.84      79.999,64.352 54.865,49.84 54.865,20.815 79.999,6.303 105.133,20.815    "/>
			<polygon opacity="0.8" fill="none" stroke="#FFFFFF" stroke-width="1.8048" stroke-miterlimit="10" points="155.407,49.84      130.27,64.352 105.133,49.84 105.133,20.815 130.27,6.303 155.407,20.815    "/>
		</g>
	</g>

</g>
</svg>
