<?xml version="1.0" encoding="UTF-8"?>
<!-- Generator: Adobe Illustrator 16.0.0, SVG Export Plug-In . SVG Version: 6.00 Build 0)  -->
<!DOCTYPE svg PUBLIC "-//W3C//DTD SVG 1.1//EN" "http://www.w3.org/Graphics/SVG/1.1/DTD/svg11.dtd">
<svg version="1.1" id="Layer_1" xmlns="http://www.w3.org/2000/svg" xmlns:xlink="http://www.w3.org/1999/xlink" x="0px" y="0px" width="158.455px" height="33.318px" viewBox="0 0 158.455 33.318" enable-background="new 0 0 158.455 33.318" xml:space="preserve">
<g>
	<g>
		<polygon fill="#2D2C6E" points="110.684,14.22 114.588,14.22 114.588,22.027 117.518,22.027 117.518,14.22 121.422,14.22     121.422,11.291 110.684,11.291   "/>
	</g>
	<g>
		<rect x="126.047" y="11.291" fill="#2D2C6E" width="2.928" height="10.736"/>
	</g>
	<g>
		<path fill="#2D2C6E" d="M141.822,11.291h-8.289v10.736h8.289c1.348,0,2.445-1.091,2.445-2.434v-5.869    C144.268,12.383,143.17,11.291,141.822,11.291z M141.326,14.22v4.877h-4.879V14.22H141.326z"/>
	</g>
	<g>
		<polygon fill="#2D2C6E" points="158.455,14.22 158.455,11.291 148.48,11.291 148.48,22.027 158.455,22.027 158.455,19.098     151.422,19.098 151.422,18.123 157.084,18.123 157.084,15.196 151.422,15.196 151.422,14.22   "/>
	</g>
</g>
<g>
	<g>
		<polygon fill="#493B86" points="0.5,8.619 0.5,24.701 14.428,16.661   "/>
		<polygon fill="#534691" points="0.5,24.699 14.428,32.74 14.428,16.66   "/>
		<polygon fill="#6B62A0" points="14.428,16.66 14.428,32.74 28.357,24.699   "/>
		<polygon fill="#817EAF" points="14.428,16.66 28.357,24.699 28.357,8.618   "/>
		<polygon fill="#6B62A0" points="28.357,8.618 28.357,24.699 42.283,16.66   "/>
		<polygon fill="#9B92C0" points="28.357,8.618 42.283,16.66 42.283,0.578   "/>
		<polygon fill="#534691" points="42.283,0.578 42.283,16.66 56.209,8.618   "/>
		<polygon fill="#493B86" points="56.209,8.618 42.283,16.66 56.209,24.699   "/>
		<polygon fill="#534691" points="56.209,8.618 70.137,16.66 56.209,24.699   "/>
		<polygon fill="#9B92C0" points="70.137,16.66 70.137,32.74 56.209,24.699   "/>
		<polygon fill="#817EAF" points="70.137,16.66 70.137,32.74 84.064,24.699   "/>
		<polygon fill="#9B92C0" points="84.064,8.618 70.137,16.66 84.064,24.699   "/>
	</g>
	<g>
		<polygon fill="none" stroke="#817EAF" stroke-miterlimit="10" points="28.357,24.699 14.428,32.74 0.5,24.699 0.5,8.618     14.428,0.578 28.357,8.618   "/>
		<polygon fill="none" stroke="#817EAF" stroke-miterlimit="10" points="56.209,24.699 42.283,32.74 28.357,24.699 28.357,8.618     42.283,0.578 56.209,8.618   "/>
		<polygon fill="none" stroke="#817EAF" stroke-miterlimit="10" points="84.064,24.699 70.137,32.74 56.209,24.699 56.209,8.618     70.137,0.578 84.064,8.618   "/>
	</g>
</g>
</svg>