<?xml version="1.0" encoding="UTF-8"?>
<!-- Generator: Adobe Illustrator 16.0.0, SVG Export Plug-In . SVG Version: 6.00 Build 0)  -->
<!DOCTYPE svg PUBLIC "-//W3C//DTD SVG 1.1//EN" "http://www.w3.org/Graphics/SVG/1.1/DTD/svg11.dtd">
<svg version="1.1" id="Layer_1" xmlns="http://www.w3.org/2000/svg" xmlns:xlink="http://www.w3.org/1999/xlink" x="0px" y="0px" width="85px" height="33.318px" viewBox="0 0 85 33.318" enable-background="new 0 0 85 33.318" xml:space="preserve">
<g>
	<g>
		<polygon fill="#493B86" points="0.5,8.619 0.5,24.701 14.428,16.661   "/>
		<polygon fill="#534691" points="0.5,24.699 14.428,32.74 14.428,16.66   "/>
		<polygon fill="#6B62A0" points="14.428,16.66 14.428,32.74 28.357,24.699   "/>
		<polygon fill="#817EAF" points="14.428,16.66 28.357,24.699 28.357,8.618   "/>
		<polygon fill="#6B62A0" points="28.357,8.618 28.357,24.699 42.283,16.66   "/>
		<polygon fill="#9B92C0" points="28.357,8.618 42.283,16.66 42.283,0.578   "/>
		<polygon fill="#534691" points="42.283,0.578 42.283,16.66 56.209,8.618   "/>
		<polygon fill="#493B86" points="56.209,8.618 42.283,16.66 56.209,24.699   "/>
		<polygon fill="#534691" points="56.209,8.618 70.137,16.66 56.209,24.699   "/>
		<polygon fill="#9B92C0" points="70.137,16.66 70.137,32.74 56.209,24.699   "/>
		<polygon fill="#817EAF" points="70.137,16.66 70.137,32.74 84.064,24.699   "/>
		<polygon fill="#9B92C0" points="84.064,8.618 70.137,16.66 84.064,24.699   "/>
	</g>
</g>
</svg>